<svg xmlns="http://www.w3.org/2000/svg" width="32" height="32" viewBox="0 0 32 32" fill="none">
    <path fill-rule="evenodd" clip-rule="evenodd" d="M3.41421 0.585786C3.78929 0.210713 4.29799 0 4.82843 0H27.1716C27.702 0 28.2107 0.210714 28.5858 0.585786L31.4142 3.41421C31.7893 3.78929 32 4.29799 32 4.82843V27.1716C32 27.702 31.7893 28.2107 31.4142 28.5858L28.5858 31.4142C28.2107 31.7893 27.702 32 27.1716 32H4.82843C4.29799 32 3.78929 31.7893 3.41421 31.4142L0.585786 28.5858C0.210713 28.2107 0 27.702 0 27.1716V4.82843C0 4.29799 0.210714 3.78929 0.585786 3.41421L3.41421 0.585786ZM16 28L28 13L22.8571 6H9.14286L4 13L16 28ZM16 23.5V13H8L16 23.5Z" fill="#FFBD00" />
</svg>
